<?xml version="1.0" standalone="no"?>
<!DOCTYPE svg PUBLIC "-//W3C//DTD SVG 20010904//EN"
 "http://www.w3.org/TR/2001/REC-SVG-20010904/DTD/svg10.dtd">
<svg version="1.0" xmlns="http://www.w3.org/2000/svg"
 width="500.000000pt" height="500.000000pt" viewBox="0 0 500.000000 500.000000"
 preserveAspectRatio="xMidYMid meet">
<metadata>
Created by potrace 1.14, written by Peter Selinger 2001-2017
</metadata>
<g transform="translate(0.000000,500.000000) scale(0.100000,-0.100000)"
fill="#000000" stroke="none">
<path d="M2729 4176 c-2 -2 -42 -6 -89 -9 -80 -6 -215 -21 -270 -32 -14 -2
-43 -7 -65 -10 -22 -3 -56 -10 -75 -15 -19 -5 -51 -11 -70 -14 -91 -14 -464
-125 -545 -161 -16 -7 -66 -28 -109 -45 -87 -34 -280 -129 -364 -179 -29 -17
-55 -31 -58 -31 -3 0 -10 -5 -17 -10 -7 -6 -63 -44 -126 -86 -62 -41 -119 -81
-126 -87 -7 -7 -30 -25 -51 -42 -194 -154 -385 -368 -495 -557 -186 -317 -227
-661 -114 -953 15 -38 29 -86 30 -105 5 -59 13 -82 59 -175 62 -125 132 -227
218 -316 68 -71 168 -158 213 -187 11 -6 40 -26 65 -42 69 -47 255 -134 357
-169 85 -29 272 -77 332 -85 14 -2 51 -7 81 -11 30 -4 58 -9 61 -11 16 -9 217
-19 399 -19 177 0 308 6 425 20 74 8 132 16 150 20 11 2 43 7 70 11 28 3 53 8
56 10 4 2 24 7 45 10 22 3 44 7 49 9 6 1 28 5 50 10 56 11 61 12 150 35 44 11
87 24 95 27 8 3 24 8 35 10 44 8 268 88 388 139 171 72 396 189 429 222 7 7
15 12 20 12 6 0 65 39 148 98 205 146 494 444 626 647 21 33 48 67 59 76 11 9
21 29 23 44 1 16 11 53 22 84 53 149 58 261 20 496 -6 39 -14 87 -17 108 -3
23 -11 37 -20 37 -8 0 -11 5 -7 11 3 6 2 14 -3 18 -6 3 -13 33 -15 66 -17 201
-119 415 -278 588 -63 67 -245 217 -265 217 -4 0 -20 9 -35 20 -124 88 -482
222 -688 256 -12 2 -48 8 -80 13 -31 6 -81 13 -111 16 -30 4 -63 9 -75 12 -25
5 -501 14 -507 9z"/>
</g>
</svg>
